<svg xmlns="http://www.w3.org/2000/svg" fill="none" viewBox="0 0 976 32">
  <path stroke="#324481" stroke-opacity=".4" d="M.5 0v24M5.5 0v8M10.5 0v8M15.5 0v8M20.5 0v8M25.5 0v8M30.5 0v8M35.5 0v8M40.5 0v8M45.5 0v8M50.5 0v8M55.5 0v8M60.5 0v8M65.5 0v8M70.5 0v8M75.5 0v8M80.5 0v8M85.5 0v8M90.5 0v8M95.5 0v8M100.5 0v8M105.5 0v8M110.5 0v8M115.5 0v8M120.5 0v8M125.5 0v8M130.5 0v8M135.5 0v8"/>
  <path fill="#324481" fill-opacity=".4" d="M9.22 25H7.99v-7.84a8.14 8.14 0 0 1-2.46 1.48v-1.19a7.43 7.43 0 0 0 1.8-1.17c.51-.46.88-.91 1.1-1.34h.79V25Zm3.34-2.32 1.18-.1c.1.55.3.95.58 1.2.28.25.64.38 1.08.38.38 0 .71-.09 1-.26.28-.17.52-.4.7-.7.18-.28.33-.67.46-1.17a6.18 6.18 0 0 0 .17-1.75 2.84 2.84 0 0 1-2.39 1.32 2.8 2.8 0 0 1-2.1-.9 3.3 3.3 0 0 1-.87-2.38c0-1.02.3-1.83.9-2.45.6-.62 1.35-.93 2.26-.93a3.2 3.2 0 0 1 3.01 2.03c.28.64.42 1.58.42 2.81 0 1.28-.14 2.3-.41 3.07-.28.75-.7 1.33-1.25 1.73-.54.4-1.19.6-1.93.6-.78 0-1.42-.23-1.92-.66-.5-.44-.8-1.05-.9-1.84Zm5.04-4.42c0-.7-.2-1.27-.57-1.68a1.76 1.76 0 0 0-1.35-.62c-.55 0-1.03.22-1.43.67-.4.44-.61 1.02-.61 1.73 0 .64.19 1.16.57 1.56.39.4.87.6 1.43.6.57 0 1.04-.2 1.4-.6.37-.4.56-.95.56-1.66Zm4.46 1.3a2.32 2.32 0 0 1-1.13-.8 2.1 2.1 0 0 1-.37-1.24c0-.73.26-1.34.78-1.84.53-.5 1.22-.74 2.1-.74.87 0 1.57.25 2.1.76.54.5.8 1.13.8 1.86 0 .46-.12.87-.36 1.21-.24.34-.61.6-1.11.8.62.2 1.08.52 1.4.97.33.44.49.98.49 1.6 0 .85-.3 1.57-.91 2.16-.6.58-1.4.87-2.4.87a3.3 3.3 0 0 1-2.39-.87c-.6-.6-.9-1.32-.9-2.2 0-.65.16-1.2.49-1.63.33-.44.8-.75 1.41-.9Zm-.25-2.08c0 .47.16.86.46 1.16.3.3.7.45 1.2.45.47 0 .85-.14 1.15-.44.3-.3.46-.67.46-1.1 0-.45-.16-.83-.47-1.14-.3-.3-.7-.46-1.16-.46-.47 0-.86.15-1.17.45-.31.3-.47.66-.47 1.08Zm-.4 4.63c0 .35.09.69.25 1.02.17.33.42.58.75.76.33.18.68.27 1.06.27a1.94 1.94 0 0 0 2.03-2.01 2.01 2.01 0 0 0-2.07-2.05 1.96 1.96 0 0 0-2.01 2Zm8.44-2.54a2.32 2.32 0 0 1-1.13-.8 2.1 2.1 0 0 1-.37-1.25c0-.73.26-1.34.79-1.84.52-.5 1.22-.74 2.09-.74.87 0 1.58.25 2.11.76.53.5.8 1.13.8 1.86 0 .46-.12.87-.37 1.21-.24.34-.61.6-1.1.8.6.2 1.08.52 1.4.97.32.44.48.98.48 1.6 0 .85-.3 1.57-.9 2.16-.62.58-1.41.87-2.4.87a3.3 3.3 0 0 1-2.4-.87c-.6-.6-.9-1.32-.9-2.2 0-.65.16-1.2.49-1.63.33-.44.8-.75 1.41-.9Zm-.24-2.09c0 .47.15.86.46 1.16.3.3.7.45 1.18.45s.87-.14 1.17-.44c.3-.3.45-.67.45-1.1 0-.45-.15-.83-.47-1.14-.3-.3-.7-.46-1.16-.46-.47 0-.86.15-1.17.45-.3.3-.46.66-.46 1.08Zm-.4 4.63c0 .35.08.69.25 1.02.17.33.41.58.74.76.33.18.68.27 1.06.27.59 0 1.07-.19 1.46-.57.38-.38.57-.86.57-1.44a2.01 2.01 0 0 0-2.07-2.05 1.96 1.96 0 0 0-2 2Z"/>
  <path stroke="#324481" stroke-opacity=".4" d="M140.5 0v24M145.5 0v8M150.5 0v8M155.5 0v8M160.5 0v8M165.5 0v8M170.5 0v8M175.5 0v8M180.5 0v8M185.5 0v8M190.5 0v8M195.5 0v8M200.5 0v8M205.5 0v8M210.5 0v8M215.5 0v8M220.5 0v8M225.5 0v8M230.5 0v8M235.5 0v8M240.5 0v8M245.5 0v8M250.5 0v8M255.5 0v8M260.5 0v8M265.5 0v8M270.5 0v8M275.5 0v8"/>
  <path fill="#324481" fill-opacity=".4" d="M149.22 25h-1.23v-7.84a8.12 8.12 0 0 1-2.46 1.48v-1.19a7.41 7.41 0 0 0 1.8-1.17c.51-.46.88-.91 1.1-1.34h.79V25Zm3.34-2.32 1.18-.1c.1.55.3.95.57 1.2.29.25.65.38 1.1.38.37 0 .7-.09.98-.26.3-.17.53-.4.7-.7.19-.28.34-.67.47-1.17a6.18 6.18 0 0 0 .17-1.75 2.84 2.84 0 0 1-2.39 1.32 2.8 2.8 0 0 1-2.1-.9 3.3 3.3 0 0 1-.87-2.38c0-1.02.3-1.83.9-2.45.6-.62 1.35-.93 2.25-.93a3.2 3.2 0 0 1 3.02 2.03c.28.64.42 1.58.42 2.81 0 1.28-.14 2.3-.41 3.07-.28.75-.7 1.33-1.25 1.73-.54.4-1.19.6-1.93.6-.78 0-1.42-.23-1.92-.66-.5-.44-.8-1.05-.9-1.84Zm5.04-4.42c0-.7-.2-1.27-.57-1.68a1.76 1.76 0 0 0-1.35-.62c-.55 0-1.03.22-1.43.67-.4.44-.61 1.02-.61 1.73 0 .64.19 1.16.57 1.56.39.4.87.6 1.43.6.57 0 1.04-.2 1.4-.6.37-.4.56-.95.56-1.66Zm4.46 1.3a2.31 2.31 0 0 1-1.13-.8 2.1 2.1 0 0 1-.37-1.24c0-.73.26-1.34.78-1.84.53-.5 1.22-.74 2.1-.74.87 0 1.57.25 2.1.76.54.5.8 1.13.8 1.86 0 .46-.12.87-.36 1.21-.24.34-.61.6-1.11.8.62.2 1.08.52 1.4.97.32.44.49.98.49 1.6 0 .85-.3 1.57-.91 2.16-.6.58-1.4.87-2.4.87a3.3 3.3 0 0 1-2.39-.87c-.6-.6-.9-1.32-.9-2.2 0-.65.16-1.2.49-1.63.33-.44.8-.75 1.41-.9Zm-.25-2.08c0 .47.16.86.46 1.16.3.3.7.45 1.2.45.47 0 .85-.14 1.15-.44.3-.3.46-.67.46-1.1 0-.45-.16-.83-.47-1.14-.31-.3-.7-.46-1.16-.46-.47 0-.86.15-1.17.45-.31.3-.47.66-.47 1.08Zm-.4 4.63c0 .35.09.69.25 1.02.17.33.42.58.75.76.33.18.68.27 1.06.27.59 0 1.07-.19 1.46-.57.38-.38.57-.86.57-1.44a2.01 2.01 0 0 0-2.07-2.05 1.96 1.96 0 0 0-2.01 2Zm6.74.57 1.18-.1c.1.55.29.95.57 1.2.28.25.65.38 1.09.38.38 0 .7-.09.99-.26.29-.17.52-.4.7-.7.19-.28.34-.67.46-1.17a6.18 6.18 0 0 0 .18-1.75 2.84 2.84 0 0 1-2.4 1.32 2.8 2.8 0 0 1-2.1-.9 3.3 3.3 0 0 1-.86-2.38c0-1.02.3-1.83.9-2.45.6-.62 1.35-.93 2.25-.93a3.2 3.2 0 0 1 3.02 2.03c.28.64.42 1.58.42 2.81 0 1.28-.14 2.3-.42 3.07-.28.75-.69 1.33-1.24 1.73-.55.4-1.2.6-1.93.6-.78 0-1.42-.23-1.92-.66-.5-.44-.8-1.05-.9-1.84Zm5.03-4.42c0-.7-.19-1.27-.56-1.68a1.76 1.76 0 0 0-1.36-.62c-.54 0-1.02.22-1.43.67-.4.44-.6 1.02-.6 1.73 0 .64.19 1.16.57 1.56.39.4.86.6 1.43.6s1.03-.2 1.4-.6c.37-.4.55-.95.55-1.66Z"/>
  <path stroke="#324481" stroke-opacity=".4" d="M280.5 0v24M285.5 0v8M290.5 0v8M295.5 0v8M300.5 0v8M305.5 0v8M310.5 0v8M315.5 0v8M320.5 0v8M325.5 0v8M330.5 0v8M335.5 0v8M340.5 0v8M345.5 0v8M350.5 0v8M355.5 0v8M360.5 0v8M365.5 0v8M370.5 0v8M375.5 0v8M380.5 0v8M385.5 0v8M390.5 0v8M395.5 0v8M400.5 0v8M405.5 0v8M410.5 0v8M415.5 0v8"/>
  <path fill="#324481" fill-opacity=".4" d="M289.22 25h-1.24v-7.84a8.12 8.12 0 0 1-2.46 1.48v-1.19a7.41 7.41 0 0 0 1.8-1.17c.52-.46.89-.91 1.1-1.34h.8V25Zm3.34-2.32 1.18-.1c.1.55.3.95.57 1.2.29.25.65.38 1.1.38.37 0 .7-.09.98-.26.3-.17.53-.4.7-.7.19-.28.34-.67.47-1.17a6.18 6.18 0 0 0 .17-1.75 2.84 2.84 0 0 1-2.39 1.32 2.8 2.8 0 0 1-2.1-.9 3.3 3.3 0 0 1-.87-2.38c0-1.02.3-1.83.9-2.45.6-.62 1.35-.93 2.25-.93a3.2 3.2 0 0 1 3.02 2.03c.28.64.42 1.58.42 2.81 0 1.28-.13 2.3-.41 3.07-.28.75-.7 1.33-1.25 1.73-.54.4-1.19.6-1.93.6-.78 0-1.42-.23-1.92-.66-.5-.44-.8-1.05-.9-1.84Zm5.04-4.42c0-.7-.2-1.27-.57-1.68a1.76 1.76 0 0 0-1.35-.62c-.55 0-1.03.22-1.43.67-.4.44-.61 1.02-.61 1.73 0 .64.19 1.16.57 1.56.39.4.87.6 1.43.6.57 0 1.04-.2 1.4-.6.37-.4.56-.95.56-1.66Zm2.75 4.42 1.18-.1c.1.55.3.95.58 1.2.28.25.64.38 1.08.38.38 0 .71-.09 1-.26.28-.17.52-.4.7-.7.18-.28.34-.67.46-1.17a6.18 6.18 0 0 0 .18-1.75 2.84 2.84 0 0 1-2.4 1.32 2.8 2.8 0 0 1-2.1-.9 3.3 3.3 0 0 1-.86-2.38c0-1.02.3-1.83.9-2.45.6-.62 1.35-.93 2.25-.93a3.2 3.2 0 0 1 3.01 2.03c.29.64.43 1.58.43 2.81 0 1.28-.14 2.3-.42 3.07-.28.75-.7 1.33-1.24 1.73-.55.4-1.2.6-1.93.6-.79 0-1.43-.23-1.92-.66-.5-.44-.8-1.05-.9-1.84Zm5.04-4.42c0-.7-.19-1.27-.57-1.68a1.76 1.76 0 0 0-1.35-.62c-.55 0-1.02.22-1.43.67-.4.44-.6 1.02-.6 1.73 0 .64.18 1.16.57 1.56.38.4.86.6 1.43.6.56 0 1.03-.2 1.4-.6.37-.4.55-.95.55-1.66Zm2.57 1.8c0-1.19.12-2.14.36-2.86a3.6 3.6 0 0 1 1.09-1.67 2.8 2.8 0 0 1 1.82-.6c.53 0 1 .12 1.41.34.4.21.74.52 1 .93.27.4.48.9.63 1.5.15.58.23 1.36.23 2.36 0 1.17-.13 2.12-.37 2.85-.24.72-.6 1.28-1.08 1.67-.48.4-1.09.6-1.82.6-.97 0-1.73-.36-2.28-1.05-.66-.83-.99-2.19-.99-4.07Zm1.27 0c0 1.64.19 2.74.57 3.29.39.54.86.8 1.43.8.56 0 1.04-.26 1.42-.81.39-.55.58-1.64.58-3.28 0-1.65-.2-2.75-.58-3.29-.38-.54-.86-.81-1.44-.81-.56 0-1.01.24-1.35.71-.42.61-.63 1.74-.63 3.39Z"/>
  <path stroke="#324481" stroke-opacity=".4" d="M420.5 0v24M425.5 0v8M430.5 0v8M435.5 0v8M440.5 0v8M445.5 0v8M450.5 0v8M455.5 0v8M460.5 0v8M465.5 0v8M470.5 0v8M475.5 0v8M480.5 0v8M485.5 0v8M490.5 0v8M495.5 0v8M500.5 0v8M505.5 0v8M510.5 0v8M515.5 0v8M520.5 0v8M525.5 0v8M530.5 0v8M535.5 0v8M540.5 0v8M545.5 0v8M550.5 0v8M555.5 0v8"/>
  <path fill="#324481" fill-opacity=".4" d="M429.22 25h-1.24v-7.84a8.12 8.12 0 0 1-2.46 1.48v-1.19a7.41 7.41 0 0 0 1.8-1.17c.52-.46.89-.91 1.1-1.34h.8V25Zm3.34-2.32 1.18-.1c.1.55.3.95.57 1.2.29.25.65.38 1.1.38.37 0 .7-.09.98-.26.3-.17.53-.4.7-.7.19-.28.34-.67.47-1.17a6.18 6.18 0 0 0 .17-1.75 2.84 2.84 0 0 1-2.39 1.32 2.8 2.8 0 0 1-2.1-.9 3.3 3.3 0 0 1-.87-2.38c0-1.02.3-1.83.9-2.45.6-.62 1.35-.93 2.25-.93a3.2 3.2 0 0 1 3.02 2.03c.28.64.42 1.58.42 2.81 0 1.28-.13 2.3-.41 3.07-.28.75-.7 1.33-1.25 1.73-.54.4-1.19.6-1.93.6-.78 0-1.42-.23-1.92-.66-.5-.44-.8-1.05-.9-1.84Zm5.04-4.42c0-.7-.2-1.27-.57-1.68a1.76 1.76 0 0 0-1.35-.62c-.55 0-1.03.22-1.43.67-.4.44-.61 1.02-.61 1.73 0 .64.19 1.16.57 1.56.39.4.87.6 1.43.6.57 0 1.04-.2 1.4-.6.37-.4.56-.95.56-1.66Zm2.75 4.42 1.18-.1c.1.55.3.95.58 1.2.28.25.64.38 1.08.38.38 0 .71-.09 1-.26.28-.17.52-.4.7-.7.18-.28.34-.67.46-1.17a6.18 6.18 0 0 0 .18-1.75 2.84 2.84 0 0 1-2.4 1.32 2.8 2.8 0 0 1-2.1-.9 3.3 3.3 0 0 1-.86-2.38c0-1.02.3-1.83.9-2.45.6-.62 1.35-.93 2.25-.93a3.2 3.2 0 0 1 3.01 2.03c.29.64.43 1.58.43 2.81 0 1.28-.14 2.3-.42 3.07-.28.75-.7 1.33-1.24 1.73-.55.4-1.2.6-1.93.6-.79 0-1.43-.23-1.92-.66-.5-.44-.8-1.05-.9-1.84Zm5.04-4.42c0-.7-.19-1.27-.57-1.68a1.76 1.76 0 0 0-1.35-.62c-.55 0-1.02.22-1.43.67-.4.44-.6 1.02-.6 1.73 0 .64.18 1.16.57 1.56.38.4.86.6 1.43.6.56 0 1.03-.2 1.4-.6.37-.4.55-.95.55-1.66Zm9.04 5.56V25h-6.63c0-.3.04-.58.15-.85.17-.46.43-.9.8-1.34.38-.43.91-.94 1.62-1.52 1.08-.89 1.82-1.6 2.2-2.11.39-.53.58-1.02.58-1.49 0-.49-.18-.9-.53-1.23-.34-.34-.8-.5-1.36-.5-.6 0-1.06.17-1.42.53-.36.35-.54.85-.54 1.48l-1.26-.13a3.1 3.1 0 0 1 .97-2.16c.57-.5 1.33-.74 2.28-.74.96 0 1.72.26 2.28.8.56.53.84 1.2.84 1.98a3 3 0 0 1-.24 1.18c-.17.39-.44.8-.82 1.23a19.6 19.6 0 0 1-1.9 1.76c-.74.62-1.2 1.04-1.42 1.26-.2.22-.38.44-.52.67h4.92Z"/>
  <path stroke="#324481" stroke-opacity=".4" d="M560.5 0v24M565.5 0v8M570.5 0v8M575.5 0v8M580.5 0v8M585.5 0v8M590.5 0v8M595.5 0v8M600.5 0v8M605.5 0v8M610.5 0v8M615.5 0v8M620.5 0v8M625.5 0v8M630.5 0v8M635.5 0v8M640.5 0v8M645.5 0v8M650.5 0v8M655.5 0v8M660.5 0v8M665.5 0v8M670.5 0v8M675.5 0v8M680.5 0v8M685.5 0v8M690.5 0v8M695.5 0v8"/>
  <path fill="#324481" fill-opacity=".4" d="M569.22 25h-1.24v-7.84a8.12 8.12 0 0 1-2.46 1.48v-1.19a7.41 7.41 0 0 0 1.8-1.17c.52-.46.89-.91 1.1-1.34h.8V25Zm3.34-2.32 1.18-.1c.1.55.3.95.58 1.2.28.25.64.38 1.08.38.38 0 .71-.09 1-.26.28-.17.51-.4.7-.7.18-.28.33-.67.46-1.17a6.18 6.18 0 0 0 .17-1.75 2.84 2.84 0 0 1-2.39 1.32 2.8 2.8 0 0 1-2.1-.9 3.3 3.3 0 0 1-.87-2.38c0-1.02.3-1.83.9-2.45.6-.62 1.35-.93 2.25-.93a3.2 3.2 0 0 1 3.02 2.03c.28.64.42 1.58.42 2.81 0 1.28-.13 2.3-.41 3.07-.28.75-.7 1.33-1.25 1.73-.54.4-1.19.6-1.92.6-.79 0-1.43-.23-1.93-.66-.5-.44-.8-1.05-.9-1.84Zm5.04-4.42c0-.7-.2-1.27-.57-1.68a1.76 1.76 0 0 0-1.35-.62c-.55 0-1.03.22-1.43.67-.4.44-.61 1.02-.61 1.73 0 .64.19 1.16.57 1.56.39.4.87.6 1.43.6.57 0 1.04-.2 1.4-.6.37-.4.56-.95.56-1.66Zm2.75 4.42 1.18-.1c.1.55.3.95.58 1.2.28.25.64.38 1.09.38.37 0 .7-.09.99-.26.28-.17.52-.4.7-.7.18-.28.34-.67.46-1.17a6.18 6.18 0 0 0 .18-1.75 2.84 2.84 0 0 1-2.4 1.32 2.8 2.8 0 0 1-2.1-.9 3.3 3.3 0 0 1-.86-2.38c0-1.02.3-1.83.9-2.45.6-.62 1.35-.93 2.25-.93a3.2 3.2 0 0 1 3.01 2.03c.29.64.43 1.58.43 2.81 0 1.28-.14 2.3-.42 3.07-.28.75-.7 1.33-1.24 1.73-.55.4-1.2.6-1.93.6-.79 0-1.43-.23-1.92-.66-.5-.44-.8-1.05-.9-1.84Zm5.04-4.42c0-.7-.19-1.27-.57-1.68a1.76 1.76 0 0 0-1.35-.62c-.55 0-1.02.22-1.43.67-.4.44-.6 1.02-.6 1.73 0 .64.18 1.16.57 1.56.38.4.86.6 1.42.6.57 0 1.04-.2 1.4-.6.38-.4.56-.95.56-1.66ZM591.9 25v-2.4h-4.34v-1.13l4.57-6.5h1v6.5h1.36v1.13h-1.36V25h-1.23Zm0-3.53v-4.52l-3.13 4.52h3.13Z"/>
  <path stroke="#324481" stroke-opacity=".4" d="M700.5 0v24M705.5 0v8M710.5 0v8M715.5 0v8M720.5 0v8M725.5 0v8M730.5 0v8M735.5 0v8M740.5 0v8M745.5 0v8M750.5 0v8M755.5 0v8M760.5 0v8M765.5 0v8M770.5 0v8M775.5 0v8M780.5 0v8M785.5 0v8M790.5 0v8M795.5 0v8M800.5 0v8M805.5 0v8M810.5 0v8M815.5 0v8M820.5 0v8M825.5 0v8M830.5 0v8M835.5 0v8"/>
  <path fill="#324481" fill-opacity=".4" d="M711.05 23.82V25h-6.63c0-.3.04-.58.15-.85.17-.46.43-.9.8-1.34.38-.43.91-.94 1.62-1.52 1.09-.89 1.82-1.6 2.2-2.11.39-.53.58-1.02.58-1.49 0-.49-.18-.9-.53-1.23-.34-.34-.8-.5-1.36-.5-.59 0-1.06.17-1.42.53-.36.35-.54.85-.54 1.48l-1.26-.13a3.1 3.1 0 0 1 .97-2.16c.57-.5 1.33-.74 2.28-.74.96 0 1.72.26 2.28.8.56.53.84 1.2.84 1.98a3 3 0 0 1-.24 1.18c-.17.39-.44.8-.82 1.23-.38.42-1.01 1.01-1.9 1.76-.73.62-1.2 1.04-1.42 1.26-.2.22-.38.44-.52.67h4.92Zm1.32-3.76c0-1.19.13-2.14.37-2.86a3.6 3.6 0 0 1 1.08-1.67 2.8 2.8 0 0 1 1.82-.6c.54 0 1.01.12 1.42.34.4.21.74.52 1 .93.27.4.47.9.62 1.5.15.58.23 1.36.23 2.36 0 1.17-.12 2.12-.36 2.85-.25.72-.6 1.28-1.09 1.67-.48.4-1.09.6-1.82.6-.97 0-1.72-.36-2.27-1.05-.67-.83-1-2.19-1-4.07Zm1.27 0c0 1.64.19 2.74.57 3.29.39.54.87.8 1.43.8.57 0 1.04-.26 1.42-.81.4-.55.59-1.64.59-3.28 0-1.65-.2-2.75-.59-3.29-.38-.54-.86-.81-1.43-.81s-1.02.24-1.36.71c-.42.61-.63 1.74-.63 3.39Zm6.53 0c0-1.19.12-2.14.36-2.86a3.6 3.6 0 0 1 1.09-1.67 2.8 2.8 0 0 1 1.81-.6c.54 0 1.01.12 1.42.34.4.21.74.52 1 .93.27.4.48.9.63 1.5.15.58.22 1.36.22 2.36 0 1.17-.12 2.12-.36 2.85-.24.72-.6 1.28-1.09 1.67-.48.4-1.08.6-1.82.6-.96 0-1.72-.36-2.27-1.05-.66-.83-1-2.19-1-4.07Zm1.26 0c0 1.64.2 2.74.58 3.29.38.54.86.8 1.42.8.57 0 1.04-.26 1.43-.81.38-.55.58-1.64.58-3.28 0-1.65-.2-2.75-.58-3.29-.39-.54-.87-.81-1.44-.81-.56 0-1.01.24-1.35.71-.43.61-.64 1.74-.64 3.39Zm6.53 0c0-1.19.12-2.14.36-2.86a3.6 3.6 0 0 1 1.09-1.67 2.8 2.8 0 0 1 1.82-.6c.53 0 1 .12 1.41.34.4.21.74.52 1 .93.27.4.48.9.63 1.5.15.58.23 1.36.23 2.36 0 1.17-.13 2.12-.37 2.85-.24.72-.6 1.28-1.08 1.67-.48.4-1.09.6-1.82.6-.97 0-1.73-.36-2.28-1.05-.66-.83-.99-2.19-.99-4.07Zm1.26 0c0 1.64.2 2.74.58 3.29.39.54.86.8 1.43.8.56 0 1.04-.26 1.42-.81.39-.55.58-1.64.58-3.28 0-1.65-.2-2.75-.58-3.29-.38-.54-.86-.81-1.44-.81-.56 0-1.01.24-1.35.71-.42.61-.63 1.74-.63 3.39Z"/>
  <path stroke="#324481" stroke-opacity=".4" d="M840.5 0v24M845.5 0v8M850.5 0v8M855.5 0v8M860.5 0v8M865.5 0v8M870.5 0v8M875.5 0v8M880.5 0v8M885.5 0v8M890.5 0v8M895.5 0v8M900.5 0v8M905.5 0v8M910.5 0v8M915.5 0v8M920.5 0v8M925.5 0v8M930.5 0v8M935.5 0v8M940.5 0v8M945.5 0v8M950.5 0v8M955.5 0v8M960.5 0v8M965.5 0v8M970.5 0v8M975.5 0v8"/>
  <path fill="#324481" fill-opacity=".4" d="M851.05 23.82V25h-6.63c0-.3.04-.58.15-.85.17-.46.43-.9.8-1.34.38-.43.91-.94 1.62-1.52 1.09-.89 1.82-1.6 2.2-2.11.39-.53.58-1.02.58-1.49 0-.49-.18-.9-.53-1.23-.34-.34-.8-.5-1.36-.5-.59 0-1.06.17-1.42.53-.36.35-.54.85-.54 1.48l-1.26-.13a3.1 3.1 0 0 1 .97-2.16c.57-.5 1.33-.74 2.28-.74.96 0 1.72.26 2.28.8.56.53.84 1.2.84 1.98a3 3 0 0 1-.24 1.18c-.17.39-.44.8-.82 1.23-.38.42-1.01 1.01-1.9 1.76-.73.62-1.2 1.04-1.42 1.26-.2.22-.38.44-.52.67h4.92Zm1.32-3.76c0-1.19.13-2.14.37-2.86a3.6 3.6 0 0 1 1.08-1.67 2.8 2.8 0 0 1 1.82-.6c.54 0 1.01.12 1.42.34.4.21.74.52 1 .93.27.4.47.9.62 1.5.15.58.23 1.36.23 2.36 0 1.17-.12 2.12-.36 2.85-.25.72-.6 1.28-1.09 1.67-.48.4-1.09.6-1.82.6-.97 0-1.72-.36-2.27-1.05-.67-.83-1-2.19-1-4.07Zm1.27 0c0 1.64.19 2.74.57 3.29.39.54.87.8 1.43.8.57 0 1.04-.26 1.42-.81.4-.55.59-1.64.59-3.28 0-1.65-.2-2.75-.59-3.29-.38-.54-.86-.81-1.43-.81s-1.02.24-1.36.71c-.42.61-.63 1.74-.63 3.39Zm6.53 0c0-1.19.12-2.14.36-2.86a3.6 3.6 0 0 1 1.09-1.67 2.8 2.8 0 0 1 1.81-.6c.54 0 1.01.12 1.42.34.4.21.74.52 1 .93.27.4.48.9.63 1.5.15.58.22 1.36.22 2.36 0 1.17-.12 2.12-.36 2.85-.24.72-.6 1.28-1.09 1.67-.48.4-1.08.6-1.82.6-.96 0-1.72-.36-2.27-1.05-.66-.83-1-2.19-1-4.07Zm1.26 0c0 1.64.2 2.74.58 3.29.38.54.86.8 1.42.8.57 0 1.04-.26 1.43-.81.38-.55.58-1.64.58-3.28 0-1.65-.2-2.75-.58-3.29-.39-.54-.87-.81-1.44-.81-.56 0-1.01.24-1.35.71-.43.61-.64 1.74-.64 3.39Zm13 3.76V25h-6.63c0-.3.04-.58.15-.85.16-.46.43-.9.8-1.34.38-.43.91-.94 1.62-1.52 1.09-.89 1.82-1.6 2.2-2.11.39-.53.58-1.02.58-1.49 0-.49-.18-.9-.53-1.23-.34-.34-.8-.5-1.36-.5-.6 0-1.06.17-1.42.53-.36.35-.54.85-.54 1.48l-1.26-.13a3.1 3.1 0 0 1 .97-2.16c.57-.5 1.33-.74 2.28-.74.96 0 1.72.26 2.28.8.56.53.84 1.2.84 1.98a3 3 0 0 1-.24 1.18c-.17.39-.44.8-.82 1.23a19.6 19.6 0 0 1-1.9 1.76c-.74.62-1.2 1.04-1.42 1.26-.2.22-.38.44-.52.67h4.92Z"/>
</svg>
